<svg xmlns="http://www.w3.org/2000/svg" viewBox="0 0 1548 421" fill="white"><title>Artboard 17</title><g id="Layer_8" data-name="Layer 8"><path d="M76,374V52H211.6q36.87,0,63.72,14.13t41.43,39.3q14.58,25.18,14.59,58.48,0,33.47-14.83,58.49t-42.23,38.75Q246.86,274.9,209.2,274.9H125.53V213H193.9q17.81,0,29.81-6.2a42.64,42.64,0,0,0,18.21-17.41q6.2-11.22,6.2-26.16,0-15.1-6.2-26.15A41.79,41.79,0,0,0,223.63,120q-12.07-6-29.73-6H153.39V374Z"/><path d="M357.7,374V52H490.41q36.07,0,62.35,12.89t40.55,36.88q14.28,24,14.28,56.81,0,33.28-14.59,56.49t-41.41,35.32q-26.83,12.11-63.54,12.11H404.13V203.7h68.81q17.4,0,29.13-4.58t17.78-14q6.06-9.39,6.06-24.15t-6.06-24.47q-6.06-9.7-17.86-14.6T472.94,117H435.08V374ZM540.19,225.37l81,148.59H535.43L456.05,225.37Z"/><path d="M788,52V324.43L710.59,374V123.22h-2.23L636.3,166.37v-66L715.76,52Z"/><path d="M999.49,148q-1.56-17.21-13.84-26.82t-35-9.62q-15,0-25,3.91t-15,10.71a26.53,26.53,0,0,0-5.16,15.57,22.58,22.58,0,0,0,2.9,12.67,29.84,29.84,0,0,0,9.38,9.62,67.5,67.5,0,0,0,14.94,7.27,156.21,156.21,0,0,0,19.71,5.48L979.94,183a195.26,195.26,0,0,1,42,13.77,114.86,114.86,0,0,1,30.66,20.49,79.9,79.9,0,0,1,18.85,27.37q6.4,15.49,6.57,34.73-.16,30.35-15.33,52.09t-43.56,33.32q-28.39,11.56-68.44,11.57-40.2,0-70.08-12t-46.46-36.61q-16.57-24.56-17-62.1h74.15q.93,15.5,8.29,25.81a45.37,45.37,0,0,0,20.26,15.65q12.9,5.31,30,5.31,15.64,0,26.67-4.22t17-11.73a27.65,27.65,0,0,0,6.1-17.21,24,24,0,0,0-5.63-15.56q-5.48-6.5-16.81-11.26a182.72,182.72,0,0,0-28.86-8.84l-33.48-7.82q-41.61-9.54-65.54-30.9T825.39,147q-.15-29.71,16-52.08t44.58-34.89q28.47-12.51,64.92-12.51,37.21,0,64.68,12.59t42.62,35.27q15.18,22.69,15.49,52.56Z"/><path d="M1109.92,52h95.78L1287,250.14h3.74L1371.94,52H1469V374h-74.29V175.84H1392l-77.06,195h-51.49l-76.63-195h-2.65V374h-74.29Z"/></g></svg>