<svg xmlns="http://www.w3.org/2000/svg" viewBox="0 0 1548 421" fill="white"><title>Artboard 17 copy</title><g id="Layer_8" data-name="Layer 8"><path d="M211.6,52q36.87,0,63.72,14.13t41.43,39.3q14.58,25.18,14.59,58.48,0,33.47-14.83,58.49t-42.23,38.75Q246.86,274.9,209.2,274.9H153.39V374H76V52H211.6M153.39,213H193.9q17.81,0,29.81-6.2a42.64,42.64,0,0,0,18.21-17.41q6.2-11.22,6.2-26.16,0-15.1-6.2-26.15A41.79,41.79,0,0,0,223.63,120q-12.07-6-29.73-6H153.39V213M211.6,43H67V383h95.39V283.9H209.2c26.41,0,49.66-4.94,69.11-14.69,19.75-9.89,35.21-24.09,45.94-42.21s16.09-39.23,16.09-63.07-5.32-44.89-15.8-63-25.69-32.58-45-42.76C260.38,48.12,237.54,43,211.6,43Zm-49.21,79.91H193.9c10.3,0,18.95,1.72,25.71,5.09a32.7,32.7,0,0,1,14.46,13.45c3.35,6,5.05,13.29,5.05,21.75S237.41,178.93,234,185a33.36,33.36,0,0,1-14.46,13.77c-6.68,3.45-15.32,5.2-25.68,5.2H162.39V122.93Z"/><path d="M490.41,52q36.07,0,62.35,12.89t40.55,36.88q14.28,24,14.28,56.81,0,33.28-14.59,56.49-14.1,22.42-39.63,34.48L621.15,374H535.43L475.9,262.52H435.08V374H357.7V52H490.41M435.08,203.7h37.86q17.4,0,29.13-4.58t17.78-14q6.06-9.39,6.06-24.15t-6.06-24.47q-6.06-9.7-17.86-14.6T472.94,117H435.08V203.7M490.41,43H348.7V383h95.38V271.52H470.5l57,106.68L530,383H636.3l-7.25-13.31-63.4-116.36a99.55,99.55,0,0,0,35-33.41c10.6-16.86,16-37.47,16-61.28,0-23.42-5.23-44.08-15.54-61.41s-25.3-31-44.32-40.36C538.05,47.67,515.73,43,490.41,43Zm-46.33,83h28.86c10.25,0,18.87,1.41,25.6,4.2,6.15,2.55,10.63,6.17,13.68,11.06s4.69,11.62,4.69,19.7-1.56,14.52-4.62,19.27-7.43,8.11-13.5,10.48c-6.73,2.63-15.43,4-25.85,4H444.08V126Z"/><path d="M788,52V324.43L710.59,374V123.22h-2.23L636.3,166.37v-66L715.76,52H788m9-9H713.23l-2.16,1.31L631.61,92.72l-4.31,2.63v86.9l13.62-8.16,60.67-36.33V390.4l13.85-8.86L792.83,332l4.15-2.66V43Z"/><path d="M950.85,47.56q37.21,0,64.68,12.59t42.62,35.27q15.18,22.69,15.49,52.56H999.49q-1.56-17.21-13.84-26.82t-35-9.62q-15,0-25,3.91t-15,10.71a26.53,26.53,0,0,0-5.16,15.57,22.58,22.58,0,0,0,2.9,12.67,29.84,29.84,0,0,0,9.38,9.62,67.5,67.5,0,0,0,14.94,7.27,156.21,156.21,0,0,0,19.71,5.48L979.94,183a195.26,195.26,0,0,1,42,13.77,114.63,114.63,0,0,1,30.66,20.49,79.9,79.9,0,0,1,18.85,27.37q6.4,15.49,6.57,34.73-.16,30.35-15.33,52.09t-43.56,33.32q-28.39,11.56-68.44,11.57-40.2,0-70.08-12t-46.46-36.61q-16.57-24.56-17-62.1h74.15q.93,15.5,8.29,25.81a45.37,45.37,0,0,0,20.26,15.65q12.9,5.31,30,5.32,15.64,0,26.67-4.23t17-11.73a27.65,27.65,0,0,0,6.1-17.21,24,24,0,0,0-5.63-15.56q-5.48-6.5-16.81-11.26a182.72,182.72,0,0,0-28.86-8.84l-33.48-7.82q-41.61-9.54-65.54-30.9T825.39,147q-.15-29.71,16-52.08t44.58-34.89q28.47-12.51,64.92-12.51m0-9c-25.44,0-48.5,4.46-68.54,13.27-20.39,9-36.62,21.7-48.26,37.87-11.82,16.41-17.76,35.7-17.66,57.35-.1,26.85,8.91,48.56,26.79,64.51,17,15.19,40.42,26.28,69.52,32.95l33.44,7.81a175.87,175.87,0,0,1,27.42,8.37c6.2,2.61,10.71,5.56,13.43,8.77a15.14,15.14,0,0,1,3.5,9.77,18.76,18.76,0,0,1-4.15,11.61c-2.93,3.7-7.35,6.7-13.14,8.92-6.28,2.4-14.17,3.63-23.45,3.63-10.13,0-19.06-1.57-26.52-4.64a36.3,36.3,0,0,1-16.36-12.55c-3.89-5.45-6.12-12.56-6.64-21.13l-.51-8.46H808l.11,9.12c.34,26.7,6.59,49.25,18.59,67s29,31.24,50.56,39.92c20.9,8.42,45.61,12.69,73.44,12.69s51.91-4.12,71.83-12.24c20.47-8.34,36.47-20.63,47.55-36.5s16.83-35.2,17-57.19v-.12a101.48,101.48,0,0,0-7.26-38.1,89.14,89.14,0,0,0-20.94-30.44,124.46,124.46,0,0,0-33-22.12,204.81,204.81,0,0,0-43.88-14.41L954.4,168h0l-.05,0a146.23,146.23,0,0,1-18.57-5.14,59,59,0,0,1-13-6.28,21.05,21.05,0,0,1-6.63-6.69,13.69,13.69,0,0,1-1.68-7.73v-.24a17.47,17.47,0,0,1,3.41-10.38c2.3-3.13,6-5.7,11.05-7.67,5.59-2.19,12.91-3.29,21.75-3.29,13,0,22.88,2.59,29.41,7.7,6.2,4.86,9.61,11.59,10.43,20.56l.75,8.18h91.45l-.09-9.09c-.23-21.6-6-40.94-17-57.47S1039,61,1019.28,52c-19.41-8.9-42.43-13.41-68.43-13.41Z"/><path d="M1469,52V374h-74.29V175.84H1392l-77.06,195h-51.49l-76.63-195h-2.65V374h-74.29V52h95.78L1287,250.14h3.74L1371.94,52H1469m9-9H1365.9l-2.29,5.59L1288.82,231,1214,48.61,1211.74,43H1100.92V383h92.29V216.61l61.91,157.54,2.24,5.71h63.74l2.25-5.69,62.36-157.8V383H1478V43Z"/></g></svg>