<svg xmlns="http://www.w3.org/2000/svg" viewBox="0 0 523 410" fill="white"><title>Artboard 13</title><g id="final"><path d="M263.07,10.37l61.27,78.79a.6.6,0,0,1-.4,1L262.07,97a.33.33,0,0,1-.14,0l-61.88-6.87a.6.6,0,0,1-.41-1l21.18-27.92a.6.6,0,0,1,.48-.24h40.1a.6.6,0,0,0,.6-.6V10.74A.6.6,0,0,1,263.07,10.37Z"/><path d="M262.85,95.41l106,50.53a.55.55,0,0,1,.22.18l21.27,28a.59.59,0,0,1-.41,1L262.06,189h-.12L134.05,175.11a.59.59,0,0,1-.41-1l21.18-27.92a.6.6,0,0,1,.48-.24H261.4a.6.6,0,0,0,.6-.6V96A.6.6,0,0,1,262.85,95.41Z"/><path d="M262.77,187.23l180,53.71a.62.62,0,0,1,.31.22l21.25,28a.59.59,0,0,1-.41.95L262.11,294H262L60.73,270.21a1,1,0,0,1-.68-1.6L81.7,241.4a1,1,0,0,1,.8-.4H261.4a.6.6,0,0,0,.6-.6V187.8A.6.6,0,0,1,262.77,187.23Z"/><path d="M262.69,292.11l248.47,40.43a.6.6,0,0,1,.06,1.17L262.15,397a.51.51,0,0,1-.3,0L14.63,334.18a.6.6,0,0,1,.15-1.18H261.4a.6.6,0,0,0,.6-.6V292.7A.6.6,0,0,1,262.69,292.11Z"/></g></svg>