<svg xmlns="http://www.w3.org/2000/svg" viewBox="0 0 523 410" fill="white"><title>Artboard 13 copy</title><g id="final"><path d="M268,26.49l45.68,58.73L262,91,210.17,85.2,224,67h37a7,7,0,0,0,7-7V26.49M263,11a1,1,0,0,0-1,1V60a1,1,0,0,1-1,1H221.51a1.05,1.05,0,0,0-.82.4L200.08,88.57a1,1,0,0,0,.7,1.63L261.89,97h.22l61.08-6.79a1,1,0,0,0,.69-1.64L263.82,11.34A1,1,0,0,0,263,11Z"/><path d="M268,104.51l97.1,46.28,14.71,19.39L262,183,144.19,170.18,158,152H261a7,7,0,0,0,7-7V104.51m-5-8.92a1,1,0,0,0-1,1V145a1,1,0,0,1-1,1H155.51a1.05,1.05,0,0,0-.82.4l-20.6,27.17a1,1,0,0,0,.7,1.62L261.89,189h.22l127.1-13.8a1,1,0,0,0,.7-1.62L369.15,146.2a1.1,1.1,0,0,0-.37-.31L263.46,95.69a1.21,1.21,0,0,0-.44-.1Z"/><path d="M268,195.05l171.41,51.14,14.51,19.13L262,289,70.32,265.35,84.91,247H261a7,7,0,0,0,7-7V195.05m-5-7.7a1,1,0,0,0-1,1V240a1,1,0,0,1-1,1H82.5a1,1,0,0,0-.8.4L60.05,268.61a1,1,0,0,0,.68,1.6L261.91,295h.25l201.08-24.76a1,1,0,0,0,.69-1.63L443.2,241.27a1,1,0,0,0-.52-.37L263.31,187.39a1,1,0,0,0-.29,0Z"/><path d="M268,300l216.28,34.33L262,390.81,58,339H261a7,7,0,0,0,7-7V300m-5-6.86a1,1,0,0,0-1,1V332a1,1,0,0,1-1,1H18.14a1,1,0,0,0-.25,2l243.86,61.94a1.06,1.06,0,0,0,.5,0l247-62.72a1,1,0,0,0-.09-2l-245.94-39-.16,0Z"/></g></svg>